# xmcd CD database file
#
# Track frame offsets:
#	150
#	21662
#	34766
#	58808
#	71279
#	87282
#	106449
#	125271
#	144598
#	159572
#	185330
#
# Disc length: 2731 seconds
#
# Revision: 0
# Processed by: cddbd v1.5.2PL0 Copyright (c) Steve Scherf et al.
# Submitted via: CDex 1.51
#
DISCID=970aa90b
DTITLE=Eldon Blanchard - Canadian Sage
DYEAR=2002
DGENRE=Country
TTITLE0=Alberta Blue
TTITLE1=Night Rider's Lament
TTITLE2=The Rustler's Ghost
TTITLE3=The Bandit Billy Miner
TTITLE4=Ride Again
TTITLE5=Senorita
TTITLE6=Strawberry Roan
TTITLE7=Canadian Freedom
TTITLE8=Mother
TTITLE9=The Ballad Of The Wild McLean Gang
TTITLE10=Shane's Song
EXTD=YEAR: 2002
EXTT0=
EXTT1=
EXTT2=
EXTT3=
EXTT4=
EXTT5=
EXTT6=
EXTT7=
EXTT8=
EXTT9=
EXTT10=
PLAYORDER=
